<?xml version="1.0" encoding="UTF-8" standalone="no"?>
<!-- Created with Inkscape (http://www.inkscape.org/) -->

<svg
   xmlns:dc="http://purl.org/dc/elements/1.1/"
   xmlns:cc="http://creativecommons.org/ns#"
   xmlns:rdf="http://www.w3.org/1999/02/22-rdf-syntax-ns#"
   xmlns:svg="http://www.w3.org/2000/svg"
   xmlns="http://www.w3.org/2000/svg"
   xmlns:sodipodi="http://sodipodi.sourceforge.net/DTD/sodipodi-0.dtd"
   xmlns:inkscape="http://www.inkscape.org/namespaces/inkscape"
   width="110"
   height="110"
   viewBox="0 0 110.00001 110"
   id="svg9124"
   version="1.1"
   inkscape:version="0.91 r"
   sodipodi:docname="ysu-activacion1.svg"
   inkscape:export-filename="/home/german/semilla1.png"
   inkscape:export-xdpi="90"
   inkscape:export-ydpi="90">
  <defs
     id="defs9126" />
  <sodipodi:namedview
     id="base"
     pagecolor="#ffffff"
     bordercolor="#666666"
     borderopacity="1.0"
     inkscape:pageopacity="0.0"
     inkscape:pageshadow="2"
     inkscape:zoom="0.98994949"
     inkscape:cx="-148.70568"
     inkscape:cy="-23.367323"
     inkscape:document-units="px"
     inkscape:current-layer="layer1"
     showgrid="false"
     inkscape:window-width="1366"
     inkscape:window-height="721"
     inkscape:window-x="-2"
     inkscape:window-y="-3"
     inkscape:window-maximized="1"
     units="px" />
  <metadata
     id="metadata9129">
    <rdf:RDF>
      <cc:Work
         rdf:about="">
        <dc:format>image/svg+xml</dc:format>
        <dc:type
           rdf:resource="http://purl.org/dc/dcmitype/StillImage" />
        <dc:title />
      </cc:Work>
    </rdf:RDF>
  </metadata>
  <g
     inkscape:label="Capa 1"
     inkscape:groupmode="layer"
     id="layer1"
     transform="translate(0,-942.36247)">
    <path
       inkscape:connector-curvature="0"
       id="path1442"
       d="M 14.998168,942.36247 C 6.7144417,942.36247 0,949.07817 0,957.36187 c 0,8.2845 6.7144417,15.0006 14.998168,15.0006 8.283726,0 14.999386,-6.7161 14.999386,-15.0006 0,-8.2837 -6.71566,-14.9994 -14.999386,-14.9994 z m 0.223997,2.1991 6.25e-4,0 c 0.284694,0 0.541087,0.1152 0.646975,0.4022 0.141556,0.3815 0.284003,0.7912 0.291137,1.1902 0.02597,1.663 0.0025,3.3263 -0.0055,4.9896 -0.0045,0.892 -0.02066,1.7822 -0.02259,2.6721 -0.0016,0.035 -0.0012,0.07 -0.0031,0.105 -0.0022,0.051 0.0058,0.2167 6.25e-4,0.2674 6.25e-4,10e-5 9.37e-4,-1e-4 0.0012,0 0,0.016 -6.25e-4,0.033 -6.25e-4,0.049 0.0019,0.3961 0.04494,0.5053 -0.06531,0.6171 0,0 -0.09872,0.1174 -0.360718,0.1404 -0.408122,-0.025 -0.81256,-0.1197 -1.220703,-0.1734 0.0019,0 0.0048,0 0.0067,0 -0.2091,-0.092 -0.197144,-0.2573 -0.197144,-0.3686 0.0012,-1.702 -0.02866,-3.4049 -0.03418,-5.1075 -0.0033,-1.1999 0.01131,-2.3996 0.03112,-3.598 0.0046,-0.2162 0.06074,-0.4351 0.121462,-0.6439 0.09967,-0.3325 0.349637,-0.5102 0.686644,-0.5365 0.04131,0 0.08278,0 0.12329,0 z m 2.976074,1.8561 c 0.324722,-0.01 0.550931,0.2167 0.60791,0.6628 0.09935,0.7909 0.163381,1.59 0.197146,2.3871 0.07662,1.8279 0.106472,3.6471 0.193482,5.473 -0.01494,0.7049 -0.03161,1.1205 -0.07446,1.7127 -0.01006,0.1302 -0.03924,0.2597 -0.0769,0.5041 -0.1987,-0.2285 -0.595522,-0.5902 -0.891119,-0.99 -1.525133,-0.896 -1.288559,-0.9961 -1.27258,-1.5625 0.01006,-0.1644 0.02422,-0.2972 0.03235,-0.3906 0.0045,-0.05 0.006,-0.087 0.0049,-0.1129 0.0727,-1.5003 0.124894,-2.9798 0.20691,-4.4812 0.04221,-0.7724 0.110481,-1.5455 0.19165,-2.3169 0.03701,-0.339 0.17065,-0.6511 0.525512,-0.8014 0.127516,-0.054 0.246984,-0.082 0.355225,-0.084 z m -3.909911,9.2511 c 0.03821,0 0.07971,0 0.125122,0 0.859078,0.079 1.593952,0.383 2.447508,0.52 0.139932,0.021 0.27525,0.1862 0.377197,0.3125 1.163291,1.4876 2.076897,2.9713 2.47559,4.82 0.03149,0.1525 0.0047,0.3423 -0.0592,0.4852 -0.468825,1.0623 -0.877493,2.1601 -1.455081,3.1604 -0.533434,0.9211 -0.845331,1.8514 -0.779418,2.9004 0.02337,0.3724 -0.13655,0.5271 -0.459597,0.6329 -1.678218,0.551 -3.350012,0.5058 -5.025633,-0.014 -0.299019,-0.093 -0.456206,-0.2652 -0.451659,-0.5817 0.01072,-0.7383 -0.25256,-1.367 -0.793456,-1.8689 -0.6928473,-0.6448 -0.9635073,-1.4797 -1.0742193,-2.3816 -0.01916,-0.1591 0.07119,-0.3306 0.110472,-0.4968 0.1487,0.042 0.3176373,0.05 0.4455563,0.1306 0.790572,0.4886 1.501184,0.3495 1.983643,-0.456 0.211035,-0.35 0.448925,-0.4941 0.850219,-0.4168 0.199672,0.038 0.413422,0.031 0.618287,0.01 0.733106,-0.067 1.23905,-0.5386 1.253662,-1.2769 0.0097,-0.5201 -0.102537,-1.0449 -0.194093,-1.5625 -0.04707,-0.2626 -0.182841,-0.5095 -0.253294,-0.7708 -0.09416,-0.3387 0.06131,-0.486 0.412597,-0.4078 0.025,0.01 0.04954,0.015 0.07324,0.022 1.059397,0.3851 0.885653,0.1095 1.022341,1.2445 0.03377,0.2822 0.0718,0.5633 0.12634,0.8399 0.04643,0.2383 0.145019,0.4864 0.438844,0.4468 0.305515,-0.043 0.29345,-0.3271 0.290528,-0.5567 -0.0032,-0.2974 -0.0372,-0.593 -0.05798,-0.8911 l 0.0012,0 c -0.0185,-0.3078 -0.04256,-0.6173 -0.05554,-0.9277 -0.01784,-0.3844 -0.201022,-0.6212 -0.578612,-0.7251 -0.33571,-0.091 -0.676488,-0.1801 -0.993041,-0.3174 -0.573368,-0.2542 -0.964728,-0.6843 -1.105959,-1.3123 -0.075,-0.3244 0.01691,-0.5369 0.284425,-0.5627 z m -2.760009,0.119 c 0.199347,0 0.412459,0.1086 0.59265,0.2106 0.113959,0.065 0.215103,0.199 0.266725,0.3253 0.583431,1.4285 1.171522,2.8555 1.72119,4.2999 0.128244,0.3331 0.03063,0.698 -0.316772,0.9156 -0.283112,0.1749 -0.710737,0.114 -0.990599,-0.1838 -0.236688,-0.2493 -0.475913,-0.5271 -0.615844,-0.8361 -0.432137,-0.95 -0.826284,-1.9166 -1.209718,-2.8864 -0.102269,-0.2601 -0.115132,-0.5532 -0.169679,-0.8295 0.01687,-0.6574 0.245757,-1.0198 0.722047,-1.0156 z m -1.8395993,2.5604 c 0.268659,-0.015 0.5563933,0.1273 0.7421873,0.4321 0.601287,0.9809 1.065312,2.025 1.269531,3.1672 -0.01266,0.3331 -0.06307,0.6379 -0.420531,0.7629 -0.343825,0.1208 -0.599316,-0.056 -0.8136,-0.3009 -0.100647,-0.1149 -0.207672,-0.2402 -0.266112,-0.3778 -0.3665543,-0.8659 -0.7431603,-1.7281 -1.0675063,-2.6086 -0.183113,-0.4968 -0.04049,-0.8412 0.298462,-1.0077 0.08084,-0.04 0.168016,-0.062 0.257569,-0.067 z"
       style="fill:#000000;fill-opacity:1;fill-rule:nonzero;stroke:none" />
  </g>
</svg>
