<?xml version="1.0" encoding="UTF-8" standalone="no"?>
<!-- Created with Inkscape (http://www.inkscape.org/) -->

<svg
   xmlns:dc="http://purl.org/dc/elements/1.1/"
   xmlns:cc="http://creativecommons.org/ns#"
   xmlns:rdf="http://www.w3.org/1999/02/22-rdf-syntax-ns#"
   xmlns:svg="http://www.w3.org/2000/svg"
   xmlns="http://www.w3.org/2000/svg"
   xmlns:sodipodi="http://sodipodi.sourceforge.net/DTD/sodipodi-0.dtd"
   xmlns:inkscape="http://www.inkscape.org/namespaces/inkscape"
   width="110"
   height="110"
   viewBox="0 0 110.00001 110"
   id="svg9124"
   version="1.1"
   inkscape:version="0.91 r"
   sodipodi:docname="ysu-activacionysu2.svg"
   inkscape:export-filename="/home/german/semilla1.png"
   inkscape:export-xdpi="90"
   inkscape:export-ydpi="90">
  <defs
     id="defs9126" />
  <sodipodi:namedview
     id="base"
     pagecolor="#ffffff"
     bordercolor="#666666"
     borderopacity="1.0"
     inkscape:pageopacity="0.0"
     inkscape:pageshadow="2"
     inkscape:zoom="0.35"
     inkscape:cx="-696.77986"
     inkscape:cy="-130"
     inkscape:document-units="px"
     inkscape:current-layer="layer1"
     showgrid="false"
     inkscape:window-width="1366"
     inkscape:window-height="721"
     inkscape:window-x="-2"
     inkscape:window-y="-3"
     inkscape:window-maximized="1"
     units="px" />
  <metadata
     id="metadata9129">
    <rdf:RDF>
      <cc:Work
         rdf:about="">
        <dc:format>image/svg+xml</dc:format>
        <dc:type
           rdf:resource="http://purl.org/dc/dcmitype/StillImage" />
        <dc:title />
      </cc:Work>
    </rdf:RDF>
  </metadata>
  <g
     inkscape:label="Capa 1"
     inkscape:groupmode="layer"
     id="layer1"
     transform="translate(0,-942.36247)">
    <path
       style="opacity:1;fill:#000000;fill-opacity:1;stroke:none;stroke-width:0.90600002;stroke-linecap:square;stroke-linejoin:miter;stroke-miterlimit:4;stroke-dasharray:none;stroke-dashoffset:0;stroke-opacity:1"
       d="m 14.9963,942.36256 c 0.05634,0 0.118196,0.107 0.168354,0.3105 0.151345,0.454 0.357738,1.399 0.812072,2.7604 0.354348,1.0545 0.811922,2.2351 1.487858,3.6865 0.86079,1.8465 1.998441,3.9617 3.526408,6.2118 1.475559,-2.1409 3.354333,-4.3857 5.7424,-6.2895 0.154915,-0.1234 0.312979,-0.2451 0.473804,-0.3656 a 14.999473,14.999222 0 0 0 -12.205826,-6.3141 14.999473,14.999222 0 0 0 -0.0048,0 z m -0.003,0 a 14.999473,14.999222 0 0 0 -0.0111,0 c 0.003,0 0.0033,0 0.0048,0 0.003,-2e-4 0.0042,0 0.006,0 z m -0.0165,0 a 14.999473,14.999222 0 0 0 -12.2117062,6.3379 c 0.1575546,0.1181 0.3122292,0.2377 0.4640839,0.3586 2.394187,1.9075 4.277041,4.1583 5.75488,6.304 1.5352873,-2.2604 2.6768973,-4.3852 3.5393073,-6.2392 0.674857,-1.4522 1.131321,-2.6338 1.484318,-3.6888 0.433275,-1.304 0.638858,-2.2267 0.786693,-2.7026 0.0525,-0.2396 0.120566,-0.3658 0.182424,-0.3699 z m 0.0051,3.9201 c -0.193794,1.0039 -0.494533,2.1441 -0.947217,3.4506 -0.778233,2.2492 -1.958392,4.8906 -3.716271,7.6996 1.832036,3.0248 3.027854,5.8419 3.795948,8.1632 0.413265,1.247 0.688596,2.319 0.86754,3.2584 0.177923,-0.9406 0.452504,-2.014 0.86523,-3.2627 0.765573,-2.3201 1.958842,-5.1358 3.786948,-8.1589 -1.754009,-2.8073 -2.931828,-5.4469 -3.707691,-7.6949 -0.452204,-1.3084 -0.751744,-2.4501 -0.944487,-3.4553 z m -13.6053678,4.8388 A 14.999473,14.999222 0 0 0 0,957.36096 a 14.999473,14.999222 0 0 0 1.3643826,6.2067 c 2.4801337,-1.7642 4.5124731,-4.0357 6.1439661,-6.1625 -1.581245,-2.1289 -3.5479164,-4.3934 -5.9560527,-6.1579 -0.057958,-0.043 -0.1172359,-0.084 -0.1757638,-0.1258 z m 27.2462828,0.01 c -0.06306,0.045 -0.127015,0.089 -0.189413,0.1352 -2.402016,1.7587 -4.365388,4.0163 -5.945523,6.1403 1.634523,2.1274 3.669562,4.3981 6.152125,6.1586 a 14.999473,14.999222 0 0 0 1.358953,-6.2024 14.999473,14.999222 0 0 0 -1.376142,-6.2317 z m -19.6636863,8.3435 c -1.554066,2.1862 -3.540447,4.486 -6.0662093,6.4094 -0.046318,0.035 -0.094557,0.07 -0.1413851,0.1047 a 14.999473,14.999222 0 0 0 12.2269157,6.3719 c -0.05673,0 -0.119216,-0.1082 -0.167994,-0.3148 -0.03519,-0.1066 -0.07269,-0.2302 -0.117566,-0.3883 -0.169464,-0.5965 -0.278331,-0.9762 -0.619509,-1.9753 -0.344568,-0.9978 -0.774543,-2.1036 -1.416731,-3.5146 -0.882329,-1.9361 -2.071068,-4.2312 -3.6975213,-6.693 z m 12.0562213,0.032 c -1.619404,2.4513 -2.804783,4.7369 -3.685822,6.6657 -0.643418,1.4104 -1.074203,2.5145 -1.420271,3.5119 -0.344058,1.003 -0.450854,1.3734 -0.623408,1.9741 -0.05475,0.1905 -0.09945,0.3359 -0.140995,0.4511 -0.0456,0.1655 -0.09996,0.2511 -0.149995,0.252 a 14.999473,14.999222 0 0 0 0.0048,0 14.999473,14.999222 0 0 0 12.233935,-6.3383 c -0.05466,-0.041 -0.110906,-0.081 -0.164844,-0.1219 -2.519733,-1.9199 -4.501944,-4.2132 -6.0537,-6.395 z m -6.027931,12.8532 c -0.003,2e-4 -0.003,0 -0.0042,0 a 14.999473,14.999222 0 0 0 0.0096,0 c -0.003,0 -0.0036,0 -0.0054,0 z"
       id="path8759"
       inkscape:connector-curvature="0" />
  </g>
</svg>
