<?xml version="1.0" encoding="UTF-8" standalone="no"?>
<!-- Created with Inkscape (http://www.inkscape.org/) -->

<svg
   xmlns:dc="http://purl.org/dc/elements/1.1/"
   xmlns:cc="http://creativecommons.org/ns#"
   xmlns:rdf="http://www.w3.org/1999/02/22-rdf-syntax-ns#"
   xmlns:svg="http://www.w3.org/2000/svg"
   xmlns="http://www.w3.org/2000/svg"
   xmlns:sodipodi="http://sodipodi.sourceforge.net/DTD/sodipodi-0.dtd"
   xmlns:inkscape="http://www.inkscape.org/namespaces/inkscape"
   width="110"
   height="110"
   viewBox="0 0 110.00001 110"
   id="svg9124"
   version="1.1"
   inkscape:version="0.91 r"
   sodipodi:docname="ysu-semilla1.svg"
   inkscape:export-filename="/home/german/semilla1.png"
   inkscape:export-xdpi="90"
   inkscape:export-ydpi="90">
  <defs
     id="defs9126" />
  <sodipodi:namedview
     id="base"
     pagecolor="#ffffff"
     bordercolor="#666666"
     borderopacity="1.0"
     inkscape:pageopacity="0.0"
     inkscape:pageshadow="2"
     inkscape:zoom="0.35"
     inkscape:cx="-696.77986"
     inkscape:cy="189.69623"
     inkscape:document-units="px"
     inkscape:current-layer="layer1"
     showgrid="false"
     inkscape:window-width="1366"
     inkscape:window-height="721"
     inkscape:window-x="-2"
     inkscape:window-y="-3"
     inkscape:window-maximized="1"
     units="px" />
  <metadata
     id="metadata9129">
    <rdf:RDF>
      <cc:Work
         rdf:about="">
        <dc:format>image/svg+xml</dc:format>
        <dc:type
           rdf:resource="http://purl.org/dc/dcmitype/StillImage" />
        <dc:title />
      </cc:Work>
    </rdf:RDF>
  </metadata>
  <g
     inkscape:label="Capa 1"
     inkscape:groupmode="layer"
     id="layer1"
     transform="translate(0,-942.36247)">
    <path
       style="fill:#000000"
       d="m 17.985722,972.01688 c 3.945067,-0.9113 7.987949,-3.82 9.935815,-7.1484 1.458151,-2.4916 2.302459,-6.1596 2.026468,-8.8038 -0.406731,-3.8969 -1.642675,-6.4642 -4.479357,-9.3049 -3.256906,-3.2614 -5.803302,-4.3471 -10.309918,-4.3959 -4.488679,-0.048 -7.4018247,1.1225 -10.4873116,4.2157 -3.78904037,3.7985 -5.28239177,8.152 -4.44603407,12.9614 1.48298327,8.5278 9.74053397,14.3284 17.76033767,12.4759 z m -1.686786,-4.9176 c 1.390455,-3.4425 1.366593,-6.0278 -0.08511,-9.2211 -1.370909,-3.0155 -1.743539,-7.0557 -0.877319,-9.5122 0.788867,-2.2372 1.736459,-2.2202 4.082722,0.073 2.509307,2.4527 3.563764,5.2291 3.563764,9.3832 0,5.3701 -1.939072,9.4834 -5.161152,10.9483 -2.483552,1.1291 -2.60165,0.9995 -1.522908,-1.6713 z m -4.795228,0.6732 c -2.9230877,-1.7847 -4.7612407,-5.9112 -4.7612407,-10.6884 0,-3.4422 0.800292,-6.2283 2.354084,-8.1954 1.2805797,-1.6212 3.6331067,-3.2529 4.6945627,-3.2561 0.573099,0 0.531741,0.2895 -0.344262,2.4246 -1.383995,3.3732 -1.373318,6.0183 0.03644,9.0269 1.41249,3.0145 1.71567,6.2891 0.856353,9.2491 -0.351975,1.2125 -0.853173,2.2038 -1.113767,2.203 -0.260598,0 -1.035573,-0.3445 -1.722168,-0.7637 z"
       id="path8943"
       inkscape:connector-curvature="0"
       sodipodi:nodetypes="ssssssssssssssscsscsssccc" />
  </g>
</svg>
