<?xml version="1.0" encoding="UTF-8" standalone="no"?>
<!-- Created with Inkscape (http://www.inkscape.org/) -->

<svg
   xmlns:dc="http://purl.org/dc/elements/1.1/"
   xmlns:cc="http://creativecommons.org/ns#"
   xmlns:rdf="http://www.w3.org/1999/02/22-rdf-syntax-ns#"
   xmlns:svg="http://www.w3.org/2000/svg"
   xmlns="http://www.w3.org/2000/svg"
   xmlns:sodipodi="http://sodipodi.sourceforge.net/DTD/sodipodi-0.dtd"
   xmlns:inkscape="http://www.inkscape.org/namespaces/inkscape"
   width="110"
   height="110"
   viewBox="0 0 110.00001 110"
   id="svg9124"
   version="1.1"
   inkscape:version="0.91 r"
   sodipodi:docname="ysu-encuentro1.svg"
   inkscape:export-filename="/home/german/semilla1.png"
   inkscape:export-xdpi="90"
   inkscape:export-ydpi="90">
  <defs
     id="defs9126" />
  <sodipodi:namedview
     id="base"
     pagecolor="#ffffff"
     bordercolor="#666666"
     borderopacity="1.0"
     inkscape:pageopacity="0.0"
     inkscape:pageshadow="2"
     inkscape:zoom="0.35"
     inkscape:cx="-696.77986"
     inkscape:cy="-130"
     inkscape:document-units="px"
     inkscape:current-layer="layer1"
     showgrid="false"
     inkscape:window-width="1366"
     inkscape:window-height="721"
     inkscape:window-x="-2"
     inkscape:window-y="-3"
     inkscape:window-maximized="1"
     units="px" />
  <metadata
     id="metadata9129">
    <rdf:RDF>
      <cc:Work
         rdf:about="">
        <dc:format>image/svg+xml</dc:format>
        <dc:type
           rdf:resource="http://purl.org/dc/dcmitype/StillImage" />
        <dc:title />
      </cc:Work>
    </rdf:RDF>
  </metadata>
  <g
     inkscape:label="Capa 1"
     inkscape:groupmode="layer"
     id="layer1"
     transform="translate(0,-942.36247)">
    <path
       style="fill:#000000;fill-opacity:1;fill-rule:nonzero;stroke:none"
       d="m 15.000597,942.36247 c -8.2844683,0 -15.000567,6.7155 -15.000597,15 0,8.2845 6.7161287,15 15.000597,15 8.284498,0 14.999995,-6.7155 14.999995,-15 0,-8.2845 -6.715497,-15 -14.999995,-15 z m -3.835559,4.8568 c 1.045019,0.048 2.060969,0.4955 2.796119,1.2463 l 0.21327,0.218 -0.19161,0.048 c -1.18533,0.2998 -2.03733,0.7799 -2.820689,1.5897 -0.75717,0.7827 -1.2343503,1.6805 -1.4730603,2.7709 -0.12108,0.553 -0.11046,1.7311 0.0216,2.3537 0.19821,0.9341 0.5998503,1.9478 1.0980603,2.7727 0.12333,0.2041 0.21516,0.3807 0.20391,0.3919 -0.0114,0.011 -0.30264,0.1282 -0.64746,0.2602 -0.7120803,0.2726 -1.4805603,0.6321 -1.8293103,0.8555 -1.14387,0.7325 -1.636619,1.7783 -1.726769,3.6627 l -0.027,0.5572 -1.38807,0 -1.3880998,0 0,-1.6518 c 0,-2.2323 0.05634,-2.7449 0.37209,-3.3908 0.3123299,-0.6389 0.8514298,-0.9746 2.6460898,-1.6459 0.899789,-0.3366 2.169929,-0.8387 2.201939,-0.8707 0.0072,-0.01 -0.20961,-0.2367 -0.48162,-0.5098 -0.74874,-0.7516 -1.27914,-1.626 -1.62423,-2.6794 -0.229439,-0.7005 -0.300179,-1.1339 -0.298229,-1.827 0.0033,-1.1743 0.373559,-2.0767 1.192379,-2.9045 0.75432,-0.7626 1.64892,-1.1742 2.7017403,-1.2428 0.14973,-0.01 0.29955,-0.011 0.44883,0 z m 8.184388,0.013 c 0.362129,0 0.723959,0.025 0.930479,0.077 0.7755,0.1919 1.40649,0.5433 1.96992,1.0974 0.21939,0.2158 0.462,0.4866 0.53964,0.6018 0.2454,0.3639 0.47715,0.8734 0.6,1.3201 0.10407,0.3785 0.11844,0.5105 0.11835,1.0641 -9e-5,0.7081 -0.06255,1.0812 -0.30702,1.8293 -0.33561,1.027 -0.8721,1.9098 -1.61427,2.6549 -0.27144,0.2725 -0.49395,0.5011 -0.49395,0.5086 0,0.016 1.67649,0.6761 2.702939,1.0646 0.97221,0.3679 1.43625,0.6145 1.76835,0.9387 0.30306,0.2958 0.45795,0.57 0.58302,1.0324 0.13926,0.5148 0.17637,1.1216 0.17637,2.8734 l 0,1.6518 -1.3881,0 -1.388069,0 -0.0282,-0.5777 c -0.05016,-1.0237 -0.22356,-1.7912 -0.54258,-2.4024 -0.19491,-0.3734 -0.70224,-0.9191 -1.10097,-1.1842 -0.38655,-0.2569 -1.20855,-0.6458 -1.98459,-0.9386 l -0.614039,-0.2315 0.21795,-0.3515 c 0.495209,-0.7974 0.923279,-1.8693 1.123829,-2.8143 0.13212,-0.6226 0.14331,-1.8007 0.0222,-2.3537 -0.23907,-1.0921 -0.71604,-1.9877 -1.476569,-2.7739 -0.67998,-0.7029 -1.55457,-1.2341 -2.43162,-1.4765 -0.64608,-0.1786 -0.62541,-0.1324 -0.22677,-0.5027 0.53724,-0.4991 1.19223,-0.8519 1.9125,-1.0301 0.20652,-0.051 0.56892,-0.077 0.93105,-0.077 z m -4.184759,2.7903 c 0.362129,0 0.724409,0.025 0.931049,0.077 0.80652,0.1996 1.41348,0.5439 2.01093,1.1414 0.59361,0.5936 0.8988,1.1236 1.11855,1.9412 0.13014,0.4843 0.13938,1.4399 0.0192,2.0028 -0.29058,1.3623 -0.92418,2.5594 -1.84275,3.4816 -0.27144,0.2725 -0.49338,0.5012 -0.49338,0.5086 0,0.016 1.67589,0.6761 2.702339,1.0646 0.97221,0.368 1.43625,0.6146 1.76838,0.9387 0.30306,0.2958 0.45852,0.5701 0.58359,1.0324 0.13923,0.5149 0.17637,1.1216 0.17637,2.8735 l 0,1.6517 -6.974428,0 -6.9738293,0 0,-1.6517 c 0,-2.2323 0.05574,-2.7449 0.37149,-3.3908 0.31233,-0.639 0.85203,-0.9746 2.6466903,-1.6459 0.907379,-0.3395 2.169389,-0.8388 2.201939,-0.8713 0.0075,-0.01 -0.20976,-0.237 -0.48279,-0.5098 -0.90963,-0.9088 -1.5246,-2.0541 -1.824629,-3.3996 -0.12786,-0.5734 -0.13815,-1.5434 -0.0216,-2.0156 0.195239,-0.7915 0.557759,-1.4326 1.138469,-2.0133 0.58056,-0.5806 1.22061,-0.9423 2.0133,-1.1385 0.20673,-0.051 0.56889,-0.077 0.93105,-0.077 z"
       id="path9084"
       inkscape:connector-curvature="0" />
  </g>
</svg>
