<?xml version="1.0" encoding="UTF-8" standalone="no"?>
<!-- Created with Inkscape (http://www.inkscape.org/) -->

<svg
   xmlns:dc="http://purl.org/dc/elements/1.1/"
   xmlns:cc="http://creativecommons.org/ns#"
   xmlns:rdf="http://www.w3.org/1999/02/22-rdf-syntax-ns#"
   xmlns:svg="http://www.w3.org/2000/svg"
   xmlns="http://www.w3.org/2000/svg"
   xmlns:sodipodi="http://sodipodi.sourceforge.net/DTD/sodipodi-0.dtd"
   xmlns:inkscape="http://www.inkscape.org/namespaces/inkscape"
   width="110"
   height="110"
   viewBox="0 0 110.00001 110"
   id="svg9124"
   version="1.1"
   inkscape:version="0.91 r"
   sodipodi:docname="ysu-pasos1.svg"
   inkscape:export-filename="/home/german/semilla1.png"
   inkscape:export-xdpi="90"
   inkscape:export-ydpi="90">
  <defs
     id="defs9126" />
  <sodipodi:namedview
     id="base"
     pagecolor="#ffffff"
     bordercolor="#666666"
     borderopacity="1.0"
     inkscape:pageopacity="0.0"
     inkscape:pageshadow="2"
     inkscape:zoom="0.35"
     inkscape:cx="-696.77986"
     inkscape:cy="189.69623"
     inkscape:document-units="px"
     inkscape:current-layer="layer1"
     showgrid="false"
     inkscape:window-width="1366"
     inkscape:window-height="721"
     inkscape:window-x="-2"
     inkscape:window-y="-3"
     inkscape:window-maximized="1"
     units="px" />
  <metadata
     id="metadata9129">
    <rdf:RDF>
      <cc:Work
         rdf:about="">
        <dc:format>image/svg+xml</dc:format>
        <dc:type
           rdf:resource="http://purl.org/dc/dcmitype/StillImage" />
        <dc:title />
      </cc:Work>
    </rdf:RDF>
  </metadata>
  <g
     inkscape:label="Capa 1"
     inkscape:groupmode="layer"
     id="layer1"
     transform="translate(0,-942.36247)">
    <path
       sodipodi:nodetypes="sssssccssscssssssssssssssssss"
       inkscape:connector-curvature="0"
       id="path8852"
       d="m 16.00468,969.02806 c 10.462123,-2.1762 14.569903,-14.5124 7.397271,-22.2149 -7.804695,-8.3813 -21.2309547,-4.3058 -23.21966389,7.0482 -1.1699234,6.6794 3.41030769,13.3575 10.33060689,15.0623 2.259185,0.5566 3.229524,0.575 5.491786,0.1044 z m -1.445809,-3.0483 c -0.483781,-0.8987 -0.473051,-1.8798 0.03263,-2.9832 0.462443,-1.0091 0.588489,-1.0343 2.432441,-0.485 1.203454,0.3585 1.324139,0.4962 1.142993,1.3041 -0.517112,2.3064 -2.79576,3.6732 -3.608055,2.1641 z m 2.187982,-4.8066 c -0.646523,-0.1251 -1.920769,-1.1489 -1.429982,-1.1489 0.0922,0 -0.01836,-0.8211 -0.245678,-1.8246 -0.907805,-4.0074 1.059388,-7.8928 3.555584,-7.0225 1.904156,0.6639 2.24768,5.2267 0.675219,8.9684 -0.533817,1.2702 -0.783292,1.3705 -2.555143,1.0276 z m -6.7613852,-1.0812 c -0.546334,-0.4399 -0.793568,-1.0375 -0.825749,-1.9962 -0.04381,-1.305 0.01498,-1.3834 1.2723722,-1.6955 1.606114,-0.3987 1.991998,-0.092 2.244729,1.7808 0.296708,2.1994 -1.100663,3.1915 -2.6913522,1.9109 z m -2.030084,-5.1644 c -1.24508,-2.3223 -1.588048,-7.5226 -0.59546,-9.0287 0.466897,-0.7085 0.80771,-0.8481 1.857926,-0.761 2.3038882,0.1911 3.3774162,3.2972 2.6992472,7.8097 -0.233661,1.5548 -0.390221,1.8175 -1.186469,1.9912 -0.504512,0.1101 -1.2579602,0.2969 -1.6743432,0.4152 -0.529513,0.1504 -0.860401,0.022 -1.100901,-0.4264 z"
       style="fill:#000000" />
  </g>
</svg>
