<?xml version="1.0" encoding="UTF-8" standalone="no"?>
<!-- Created with Inkscape (http://www.inkscape.org/) -->

<svg
   xmlns:dc="http://purl.org/dc/elements/1.1/"
   xmlns:cc="http://creativecommons.org/ns#"
   xmlns:rdf="http://www.w3.org/1999/02/22-rdf-syntax-ns#"
   xmlns:svg="http://www.w3.org/2000/svg"
   xmlns="http://www.w3.org/2000/svg"
   xmlns:sodipodi="http://sodipodi.sourceforge.net/DTD/sodipodi-0.dtd"
   xmlns:inkscape="http://www.inkscape.org/namespaces/inkscape"
   width="110"
   height="110"
   viewBox="0 0 110.00001 110"
   id="svg9124"
   version="1.1"
   inkscape:version="0.91 r"
   sodipodi:docname="ysu-semilla2.svg"
   inkscape:export-filename="/home/german/semilla1.png"
   inkscape:export-xdpi="90"
   inkscape:export-ydpi="90">
  <defs
     id="defs9126" />
  <sodipodi:namedview
     id="base"
     pagecolor="#ffffff"
     bordercolor="#666666"
     borderopacity="1.0"
     inkscape:pageopacity="0.0"
     inkscape:pageshadow="2"
     inkscape:zoom="2.56"
     inkscape:cx="64.659988"
     inkscape:cy="86.73607"
     inkscape:document-units="px"
     inkscape:current-layer="layer1"
     showgrid="false"
     inkscape:window-width="1366"
     inkscape:window-height="721"
     inkscape:window-x="-2"
     inkscape:window-y="-3"
     inkscape:window-maximized="1"
     units="px" />
  <metadata
     id="metadata9129">
    <rdf:RDF>
      <cc:Work
         rdf:about="">
        <dc:format>image/svg+xml</dc:format>
        <dc:type
           rdf:resource="http://purl.org/dc/dcmitype/StillImage" />
        <dc:title></dc:title>
      </cc:Work>
    </rdf:RDF>
  </metadata>
  <g
     inkscape:label="Capa 1"
     inkscape:groupmode="layer"
     id="layer1"
     transform="translate(0,-942.36247)">
    <path
       sodipodi:nodetypes="cssssssccscsssccc"
       inkscape:connector-curvature="0"
       id="path4134"
       d="m 12.843907,971.21374 c 1.868774,-4.62672 1.836703,-8.10137 -0.114388,-12.39317 -1.842503,-4.05283 -2.343318,-9.48287 -1.179118,-12.78441 1.060239,-3.0068 2.333804,-2.98395 5.487184,0.0981 3.372512,3.29644 4.789704,7.02792 4.789704,12.61104 0,7.21742 -2.606115,12.7457 -6.936595,14.71453 -3.337898,1.51751 -3.496621,1.34333 -2.046791,-2.24623 z m -6.444793,0.90478 C 2.47048,969.71989 0,964.17386 0,957.7533 c 0,-4.62632 1.075594,-8.37084 3.163892,-11.01463 1.721101,-2.17889 4.882901,-4.3719 6.309499,-4.3762 0.770246,0 0.714661,0.38909 -0.462688,3.25866 -1.860092,4.53359 -1.845742,8.08861 0.04897,12.13217 1.898388,4.05149 2.305863,8.45256 1.15094,12.4308 -0.473055,1.62961 -1.146666,2.96191 -1.496905,2.96084 -0.350244,0 -1.391811,-0.46301 -2.314599,-1.02642 z"
       style="fill:#000000" />
  </g>
</svg>
