<?xml version="1.0" encoding="UTF-8" standalone="no"?>
<!-- Created with Inkscape (http://www.inkscape.org/) -->

<svg
   xmlns:dc="http://purl.org/dc/elements/1.1/"
   xmlns:cc="http://creativecommons.org/ns#"
   xmlns:rdf="http://www.w3.org/1999/02/22-rdf-syntax-ns#"
   xmlns:svg="http://www.w3.org/2000/svg"
   xmlns="http://www.w3.org/2000/svg"
   xmlns:sodipodi="http://sodipodi.sourceforge.net/DTD/sodipodi-0.dtd"
   xmlns:inkscape="http://www.inkscape.org/namespaces/inkscape"
   width="110"
   height="110"
   viewBox="0 0 110.00001 110"
   id="svg9124"
   version="1.1"
   inkscape:version="0.91 r"
   sodipodi:docname="ysu-activacionysu1.svg"
   inkscape:export-filename="/home/german/semilla1.png"
   inkscape:export-xdpi="90"
   inkscape:export-ydpi="90">
  <defs
     id="defs9126" />
  <sodipodi:namedview
     id="base"
     pagecolor="#ffffff"
     bordercolor="#666666"
     borderopacity="1.0"
     inkscape:pageopacity="0.0"
     inkscape:pageshadow="2"
     inkscape:zoom="0.35"
     inkscape:cx="-159.637"
     inkscape:cy="-105.71429"
     inkscape:document-units="px"
     inkscape:current-layer="layer1"
     showgrid="false"
     inkscape:window-width="1366"
     inkscape:window-height="721"
     inkscape:window-x="-2"
     inkscape:window-y="-3"
     inkscape:window-maximized="1"
     units="px" />
  <metadata
     id="metadata9129">
    <rdf:RDF>
      <cc:Work
         rdf:about="">
        <dc:format>image/svg+xml</dc:format>
        <dc:type
           rdf:resource="http://purl.org/dc/dcmitype/StillImage" />
        <dc:title></dc:title>
      </cc:Work>
    </rdf:RDF>
  </metadata>
  <g
     inkscape:label="Capa 1"
     inkscape:groupmode="layer"
     id="layer1"
     transform="translate(0,-942.36247)">
    <path
       inkscape:connector-curvature="0"
       id="path8764"
       d="m 55.037048,947.36262 c 0.21262,10e-4 0.44613,0.4039 0.63539,1.1721 0.5713,1.7137 1.35032,5.2807 3.06522,10.4195 1.33768,3.9802 3.06473,8.4366 5.61602,13.9153 3.24917,6.9696 7.54326,14.9538 13.31082,23.4473 5.56949,-8.0813 12.6611,-16.5548 21.67503,-23.7407 0.58474,-0.4657 1.181412,-0.9251 1.788432,-1.38 -10.600672,-14.9261 -27.764362,-23.8051 -46.071762,-23.8335 l -0.0191,0 z m -0.009,10e-4 -0.0412,10e-4 c 0.009,0.001 0.0137,0.01 0.0191,0.01 0.009,-8e-4 0.0151,-0.01 0.022,-0.01 z m -0.0621,10e-4 c -18.33156,0.042 -35.50839,8.9569 -46.0938997,23.9235 0.59456,0.4457 1.1784097,0.8972 1.7516197,1.3534 9.03698,7.2 16.14395,15.6961 21.72226,23.7952 5.79504,-8.5321 10.10417,-16.5525 13.35936,-23.5504 2.54728,-5.4819 4.27031,-9.9418 5.60278,-13.9242 1.63536,-4.9221 2.41137,-8.4047 2.96933,-10.2013 0.1981,-0.9044 0.45506,-1.3807 0.68855,-1.3962 z m 0.0191,14.797 c -0.73149,3.7893 -1.86655,8.0931 -3.57535,13.0247 -2.93744,8.4901 -7.39209,18.4604 -14.02735,29.06318 6.91517,11.4177 11.42891,22.0513 14.32814,30.8135 1.55985,4.7067 2.59913,8.7531 3.27455,12.2993 0.67159,-3.5507 1.70799,-7.6022 3.26583,-12.3156 2.8899,-8.7578 7.3939,-19.3859 14.29425,-30.7972 -6.62072,-10.59638 -11.06645,-20.55998 -13.99497,-29.04538 -1.70699,-4.9388 -2.83754,-9.2484 -3.56511,-13.0425 z"
       style="opacity:1;fill:#000000;fill-opacity:1;stroke:none;stroke-width:0.90600002;stroke-linecap:square;stroke-linejoin:miter;stroke-miterlimit:4;stroke-dasharray:none;stroke-dashoffset:0;stroke-opacity:1"
       sodipodi:nodetypes="cccccccccccccccccccccccccccccccc" />
  </g>
</svg>
