<?xml version="1.0" encoding="UTF-8" standalone="no"?>
<!-- Created with Inkscape (http://www.inkscape.org/) -->

<svg
   xmlns:dc="http://purl.org/dc/elements/1.1/"
   xmlns:cc="http://creativecommons.org/ns#"
   xmlns:rdf="http://www.w3.org/1999/02/22-rdf-syntax-ns#"
   xmlns:svg="http://www.w3.org/2000/svg"
   xmlns="http://www.w3.org/2000/svg"
   xmlns:sodipodi="http://sodipodi.sourceforge.net/DTD/sodipodi-0.dtd"
   xmlns:inkscape="http://www.inkscape.org/namespaces/inkscape"
   width="126.04807mm"
   height="85.33976mm"
   viewBox="0 0 126.04807 85.33976"
   version="1.1"
   id="svg456"
   sodipodi:docname="ysu-logo-2017.svg"
   inkscape:version="0.92pre2 r15141 custom">
  <defs
     id="defs450" />
  <sodipodi:namedview
     id="base"
     pagecolor="#ffffff"
     bordercolor="#666666"
     borderopacity="1.0"
     inkscape:pageopacity="0.0"
     inkscape:pageshadow="2"
     inkscape:zoom="0.49497475"
     inkscape:cx="117.80757"
     inkscape:cy="-230.84807"
     inkscape:document-units="mm"
     inkscape:current-layer="layer1"
     showgrid="false"
     fit-margin-top="0"
     fit-margin-left="0"
     fit-margin-right="0"
     fit-margin-bottom="0"
     inkscape:window-width="1080"
     inkscape:window-height="1891"
     inkscape:window-x="420"
     inkscape:window-y="0"
     inkscape:window-maximized="1" />
  <metadata
     id="metadata453">
    <rdf:RDF>
      <cc:Work
         rdf:about="">
        <dc:format>image/svg+xml</dc:format>
        <dc:type
           rdf:resource="http://purl.org/dc/dcmitype/StillImage" />
        <dc:title></dc:title>
      </cc:Work>
    </rdf:RDF>
  </metadata>
  <g
     inkscape:label="Capa 1"
     inkscape:groupmode="layer"
     id="layer1"
     transform="translate(-1.9878721,-41.151547)">
    <g
       aria-label="YOSOY"
       style="font-style:normal;font-variant:normal;font-weight:600;font-stretch:normal;font-size:30.40994644px;line-height:19.0059948px;font-family:'Expletus Sans';-inkscape-font-specification:'Expletus Sans Semi-Bold';font-variant-ligatures:normal;font-variant-caps:normal;font-variant-numeric:normal;font-feature-settings:normal;text-align:start;letter-spacing:0px;word-spacing:0px;writing-mode:lr-tb;text-anchor:start;fill:#000000;fill-opacity:1;stroke:none;stroke-width:0.76023972px;stroke-linecap:butt;stroke-linejoin:miter;stroke-opacity:1"
       id="text4735">
      <path
         d="m 23.972489,109.76584 3.223454,-5.8083 h 4.105343 l -6.446908,10.64348 q -0.3041,-0.36492 -0.608199,-0.9123 -0.3041,-0.57779 -0.48656,-1.2164 -0.182459,-0.66902 -0.182459,-1.36845 0.03041,-0.69943 0.395329,-1.33803 z m -7.115927,-5.8083 7.085517,11.82947 v 10.27856 h -3.679603 v -9.63996 l -7.602487,-12.46807 z"
         style="font-style:normal;font-variant:normal;font-weight:600;font-stretch:normal;font-size:30.40994644px;font-family:'Expletus Sans';-inkscape-font-specification:'Expletus Sans Semi-Bold';font-variant-ligatures:normal;font-variant-caps:normal;font-variant-numeric:normal;font-feature-settings:normal;text-align:start;writing-mode:lr-tb;text-anchor:start;stroke-width:0.76023972px"
         id="path598" />
      <path
         d="m 38.039941,114.99635 q 0,1.76377 0.456149,3.34509 0.456149,1.58132 1.307628,2.79772 0.851478,1.18598 2.098286,1.88541 1.246808,0.69943 2.797715,0.69943 1.398857,0 2.615255,-0.6082 1.216398,-0.63861 2.128697,-1.76377 0.912298,-1.15558 1.429267,-2.76731 0.516969,-1.61173 0.516969,-3.58837 0,-1.91583 -0.486559,-3.52756 -0.486559,-1.61172 -1.368448,-2.73689 -0.881888,-1.15558 -2.128696,-1.79419 -1.216398,-0.63861 -2.706485,-0.63861 -1.520497,0 -2.767305,0.66902 -1.216398,0.66902 -2.098287,1.8246 -0.851478,1.15558 -1.338037,2.7673 -0.456149,1.58132 -0.456149,3.43633 z m -4.044523,0 q 0,-2.58485 0.790658,-4.68314 0.821069,-2.12869 2.250336,-3.61878 1.459678,-1.5205 3.405914,-2.34156 1.976647,-0.85148 4.257393,-0.85148 2.797715,0 4.804771,1.00352 2.037467,0.97312 3.345095,2.61526 1.307627,1.61173 1.915826,3.6796 0.638609,2.06788 0.638609,4.19658 0,2.37197 -0.760249,4.47026 -0.760248,2.09828 -2.159106,3.6796 -1.398857,1.55091 -3.375504,2.46321 -1.976646,0.88189 -4.409442,0.88189 -2.432796,0 -4.409442,-0.82107 -1.976647,-0.85148 -3.375504,-2.37198 -1.398858,-1.5205 -2.159107,-3.61878 -0.760248,-2.1287 -0.760248,-4.68313 z"
         style="font-style:normal;font-variant:normal;font-weight:600;font-stretch:normal;font-size:30.40994644px;font-family:'Expletus Sans';-inkscape-font-specification:'Expletus Sans Semi-Bold';font-variant-ligatures:normal;font-variant-caps:normal;font-variant-numeric:normal;font-feature-settings:normal;text-align:start;writing-mode:lr-tb;text-anchor:start;stroke-width:0.76023972px"
         id="path600" />
      <path
         d="m 65.349973,106.2991 q -1.520498,0 -2.371976,0.79066 -0.821069,0.76025 -0.821069,1.91583 0,1.09476 0.760249,1.88541 0.760249,0.79066 1.915827,1.49009 1.155578,0.66902 2.493615,1.36845 1.338038,0.69943 2.493616,1.61173 1.155578,0.88188 1.915827,2.12869 0.760248,1.2164 0.760248,2.94977 0,1.33803 -0.547379,2.4632 -0.516969,1.09476 -1.490087,1.88542 -0.973119,0.79066 -2.371976,1.24681 -1.398858,0.42574 -3.132225,0.42574 -1.307627,0 -3.040994,-0.36492 -1.733367,-0.33451 -3.618784,-1.2164 l 1.003528,-2.49362 q 1.550908,0.69943 2.949765,1.00353 1.429268,0.27369 2.554436,0.27369 0.912298,0 1.642137,-0.24328 0.760248,-0.24328 1.277218,-0.66902 0.547379,-0.45615 0.821068,-1.03394 0.3041,-0.57778 0.3041,-1.2468 0,-1.18599 -0.760249,-2.00706 -0.760249,-0.82107 -1.915827,-1.49009 -1.125168,-0.69943 -2.463205,-1.33803 -1.338038,-0.66902 -2.493616,-1.5205 -1.125168,-0.88189 -1.885417,-2.03747 -0.760248,-1.15558 -0.760248,-2.82812 0,-1.36845 0.486559,-2.4328 0.516969,-1.06435 1.398857,-1.76378 0.881889,-0.72983 2.067877,-1.09475 1.185988,-0.39533 2.554435,-0.39533 0.669019,0 1.307628,0.0608 0.669019,0.0304 1.368448,0.15205 0.699428,0.0912 1.459677,0.3041 0.760249,0.18246 1.642137,0.45614 l -1.003528,2.46321 q -1.368448,-0.39533 -2.463206,-0.54738 -1.094758,-0.15205 -2.037466,-0.15205 z"
         style="font-style:normal;font-variant:normal;font-weight:600;font-stretch:normal;font-size:30.40994644px;font-family:'Expletus Sans';-inkscape-font-specification:'Expletus Sans Semi-Bold';font-variant-ligatures:normal;font-variant-caps:normal;font-variant-numeric:normal;font-feature-settings:normal;text-align:start;writing-mode:lr-tb;text-anchor:start;stroke-width:0.76023972px"
         id="path602" />
      <path
         d="m 79.319068,114.99635 q 0,1.76377 0.456149,3.34509 0.456149,1.58132 1.307628,2.79772 0.851478,1.18598 2.098286,1.88541 1.246808,0.69943 2.797715,0.69943 1.398858,0 2.615255,-0.6082 1.216398,-0.63861 2.128697,-1.76377 0.912298,-1.15558 1.429267,-2.76731 0.516969,-1.61173 0.516969,-3.58837 0,-1.91583 -0.486559,-3.52756 -0.486559,-1.61172 -1.368447,-2.73689 -0.881889,-1.15558 -2.128697,-1.79419 -1.216398,-0.63861 -2.706485,-0.63861 -1.520497,0 -2.767305,0.66902 -1.216398,0.66902 -2.098286,1.8246 -0.851479,1.15558 -1.338038,2.7673 -0.456149,1.58132 -0.456149,3.43633 z m -4.044523,0 q 0,-2.58485 0.790658,-4.68314 0.821069,-2.12869 2.250337,-3.61878 1.459677,-1.5205 3.405914,-2.34156 1.976646,-0.85148 4.257392,-0.85148 2.797715,0 4.804772,1.00352 2.037466,0.97312 3.345094,2.61526 1.307627,1.61173 1.915826,3.6796 0.638609,2.06788 0.638609,4.19658 0,2.37197 -0.760248,4.47026 -0.760249,2.09828 -2.159107,3.6796 -1.398857,1.55091 -3.375504,2.46321 -1.976646,0.88189 -4.409442,0.88189 -2.432796,0 -4.409442,-0.82107 -1.976647,-0.85148 -3.375504,-2.37198 -1.398858,-1.5205 -2.159106,-3.61878 -0.760249,-2.1287 -0.760249,-4.68313 z"
         style="font-style:normal;font-variant:normal;font-weight:600;font-stretch:normal;font-size:30.40994644px;font-family:'Expletus Sans';-inkscape-font-specification:'Expletus Sans Semi-Bold';font-variant-ligatures:normal;font-variant-caps:normal;font-variant-numeric:normal;font-feature-settings:normal;text-align:start;writing-mode:lr-tb;text-anchor:start;stroke-width:0.76023972px"
         id="path604" />
      <path
         d="m 110.03501,109.76584 3.22346,-5.8083 h 4.10534 l -6.44691,10.64348 q -0.3041,-0.36492 -0.6082,-0.9123 -0.3041,-0.57779 -0.48656,-1.2164 -0.18246,-0.66902 -0.18246,-1.36845 0.0304,-0.69943 0.39533,-1.33803 z m -7.11593,-5.8083 7.08552,11.82947 v 10.27856 h -3.6796 v -9.63996 l -7.602488,-12.46807 z"
         style="font-style:normal;font-variant:normal;font-weight:600;font-stretch:normal;font-size:30.40994644px;font-family:'Expletus Sans';-inkscape-font-specification:'Expletus Sans Semi-Bold';font-variant-ligatures:normal;font-variant-caps:normal;font-variant-numeric:normal;font-feature-settings:normal;text-align:start;writing-mode:lr-tb;text-anchor:start;stroke-width:0.76023972px"
         id="path606" />
    </g>
    <path
       inkscape:connector-curvature="0"
       style="fill:#000000;stroke:none;stroke-width:0.26458332px;stroke-linecap:butt;stroke-linejoin:miter;stroke-opacity:1"
       d="m 64.973585,41.151547 c -0.122906,0 -0.259191,0.249343 -0.363783,0.727061 -0.289899,0.933337 -0.692912,2.742325 -1.542542,5.299428 -0.692206,2.068914 -1.587556,4.385733 -2.910925,7.233638 -1.691132,3.635502 -3.929549,7.802372 -6.940156,12.234926 -2.897999,-4.207623 -6.590254,-8.621494 -11.285106,-12.362011 -2.397958,-1.908951 -5.156454,-3.66031 -8.271314,-4.951138 -2.843953,-1.177544 -6.011615,-1.914793 -9.332778,-1.954389 -3.164276,-0.04039 -6.474404,0.539045 -9.597334,1.944568 -2.683651,1.227836 -5.1083634,3.049666 -7.0678041,5.343342 -1.8656583,2.193544 -3.288905,4.735351 -4.2291847,7.455352 -0.9335065,2.689606 -1.4205375,5.538076 -1.444357,8.414483 0,0.03782 0,0.07586 0,0.113681 -0.016087,2.831026 0.4201442,5.646192 1.3042901,8.315761 0.9010226,2.730614 2.3010426,5.28718 4.1594196,7.488966 1.9685846,2.318117 4.4152821,4.141356 7.1132701,5.358328 3.189619,1.41506 6.55797,1.98021 9.762716,1.937343 3.164868,-0.03937 6.176688,-0.734682 8.884722,-1.826234 3.014332,-1.213554 5.701877,-2.856484 8.057925,-4.649835 4.95286,-3.7719 8.848005,-8.281165 11.895413,-12.568232 3.189422,4.827553 5.52055,9.328208 7.250713,13.124772 1.259361,2.767021 2.102387,4.935305 2.778112,6.892095 0.669007,1.959186 0.883099,2.703914 1.215416,3.87364 0.08805,0.309935 0.161433,0.55214 0.230492,0.761209 0.097,0.410887 0.221403,0.61962 0.333811,0.61962 0.0045,0 0.0085,-0.0037 0.01299,-0.0042 0.0042,0 0.0085,0.0042 0.01299,0.0042 0.09858,0 0.206248,-0.168881 0.296105,-0.495076 0.08148,-0.22589 0.16863,-0.511074 0.275958,-0.884682 0.338357,-1.177882 0.548018,-1.904264 1.222671,-3.8711 0.678604,-1.955914 1.523662,-4.121205 2.785335,-6.886927 1.727708,-3.782372 4.052007,-8.263977 7.227486,-13.071012 3.04292,4.278321 6.93008,8.775335 11.871087,12.540293 2.357882,1.79575 5.048025,3.441078 8.066701,4.65709 2.712156,1.093837 5.729706,1.79039 8.901286,1.830379 3.2102,0.04352 6.58501,-0.522563 9.78236,-1.940446 2.70451,-1.219708 5.15691,-3.046675 7.13029,-5.370208 1.86273,-2.206866 3.26593,-4.76843 4.16873,-7.504459 0.8859,-2.674819 1.32295,-5.495714 1.30692,-8.331793 -2.3e-4,-0.03787 0,-0.07581 0,-0.113681 -0.0237,-2.881545 -0.51212,-5.735263 -1.44743,-8.429977 -0.94212,-2.725251 -2.36858,-5.271939 -4.23853,-7.470338 -1.96407,-2.298897 -4.39417,-4.12465 -7.08432,-5.355223 -3.13055,-1.408431 -6.44699,-1.988708 -9.61697,-1.947701 -3.32788,0.04022 -6.501557,0.778538 -9.349829,1.958538 -3.1194,1.293453 -5.880803,3.047379 -8.280654,4.958871 -4.68287,3.733151 -8.366828,8.134745 -11.260285,12.333111 -2.996324,-4.412516 -5.227346,-8.560393 -6.915346,-12.181191 -1.325456,-2.846296 -2.222727,-5.160744 -2.917642,-7.228502 -0.890947,-2.66971 -1.295345,-4.523317 -1.592157,-5.413615 -0.09855,-0.399853 -0.220133,-0.608725 -0.330737,-0.608725 -0.0042,0 -0.0085,0.004 -0.01299,0.0045 -0.0042,0 -0.0085,-0.0045 -0.01297,-0.0045 z m 0.0037,7.688919 c 0.377981,1.971124 0.965285,4.210078 1.852084,6.775817 1.52143,4.408311 3.831306,9.584013 7.270863,15.089011 -3.584815,5.928333 -5.92455,11.449671 -7.425888,15.999518 -0.809329,2.448674 -1.348203,4.553966 -1.697059,6.398599 -0.350914,-1.842318 -0.890807,-3.944536 -1.701207,-6.389794 -1.506191,-4.552077 -3.851373,-10.076688 -7.443952,-16.008323 3.447148,-5.508328 5.76185,-10.687614 7.287911,-15.098324 0.88773,-2.56207 1.477209,-4.797891 1.857248,-6.766504 z m -40.650276,4.419882 c 2.46222,-0.0396 4.938748,0.486467 7.235755,1.351337 2.540453,0.955943 4.915633,2.376988 7.080195,3.964093 4.722225,3.460299 8.578172,7.901122 11.678861,12.075752 -3.247022,4.232995 -7.301679,8.759727 -12.264361,12.240599 -2.125331,1.491094 -4.437888,2.82276 -6.895197,3.720706 -2.189168,0.798295 -4.526619,1.295061 -6.835253,1.25572 -2.509266,-0.04281 -5.045936,-0.489598 -7.252773,-1.542542 -1.867859,-0.871135 -3.583742,-2.185217 -4.938719,-3.814741 -1.304911,-1.555525 -2.3061791,-3.442123 -2.9801821,-5.48132 -0.65961,-2.005473 -0.9835447,-4.163991 -0.9756707,-6.35 1.13e-4,-0.02921 0,-0.05865 0,-0.08786 0.02173,-2.221793 0.387209,-4.414914 1.0877693,-6.452305 0.7087164,-2.050118 1.7382345,-3.944535 3.0634095,-5.514396 1.368298,-1.631216 3.074783,-2.953145 4.933527,-3.829756 2.154089,-1.039142 4.622772,-1.494931 7.062103,-1.535289 z m 81.319091,0.04597 c 2.43363,0.04101 4.89599,0.495949 7.04246,1.532213 1.85225,0.873817 3.55281,2.191851 4.91648,3.817846 1.32091,1.565007 2.34721,3.454061 3.0541,5.498902 0.69872,2.032283 1.06352,4.22069 1.0852,6.437348 2.2e-4,0.02913 0,0.05817 0,0.08732 0.008,2.180955 -0.31519,4.334764 -0.97305,6.335014 -0.67222,2.033804 -1.67033,3.914844 -2.9709,5.465318 -1.35015,1.624105 -3.0603,2.934433 -4.92167,3.802832 -2.19913,1.050092 -4.72934,1.495468 -7.23313,1.538928 -2.30189,0.03999 -4.63414,-0.454546 -6.819221,-1.250553 -2.452936,-0.895464 -4.762388,-2.225238 -6.885884,-3.713991 -4.950743,-3.469894 -8.99922,-7.983304 -12.244239,-12.207012 3.098546,-4.164952 6.948508,-8.5922 11.65874,-12.041097 2.162725,-1.584593 4.534945,-3.002534 7.070881,-3.955853 2.292723,-0.862414 4.764243,-1.387432 7.219723,-1.347216 z"
       id="path4737" />
  </g>
</svg>
