<?xml version="1.0" encoding="UTF-8" standalone="no"?>
<!-- Created with Inkscape (http://www.inkscape.org/) -->

<svg
   xmlns:dc="http://purl.org/dc/elements/1.1/"
   xmlns:cc="http://creativecommons.org/ns#"
   xmlns:rdf="http://www.w3.org/1999/02/22-rdf-syntax-ns#"
   xmlns:svg="http://www.w3.org/2000/svg"
   xmlns="http://www.w3.org/2000/svg"
   xmlns:sodipodi="http://sodipodi.sourceforge.net/DTD/sodipodi-0.dtd"
   xmlns:inkscape="http://www.inkscape.org/namespaces/inkscape"
   width="512"
   height="512"
   viewBox="0 0 512.00001 512.00001"
   id="svg2"
   version="1.1"
   inkscape:version="0.91 r13725"
   inkscape:export-filename="/home/yaco/Proyectos/YoSoyUno/Grafica/Logos/ysu-avatar.png"
   inkscape:export-xdpi="90"
   inkscape:export-ydpi="90"
   sodipodi:docname="ysu-avatar.svg">
  <defs
     id="defs4">
    <clipPath
       id="clipPath3385"
       clipPathUnits="userSpaceOnUse">
      <path
         inkscape:connector-curvature="0"
         id="path3387"
         d="m 0,595.28 841.89,0 L 841.89,0 0,0 0,595.28 Z" />
    </clipPath>
  </defs>
  <sodipodi:namedview
     id="base"
     pagecolor="#ffffff"
     bordercolor="#666666"
     borderopacity="1.0"
     inkscape:pageopacity="0.0"
     inkscape:pageshadow="2"
     inkscape:zoom="0.98994949"
     inkscape:cx="312.0816"
     inkscape:cy="355.02165"
     inkscape:document-units="px"
     inkscape:current-layer="layer1"
     showgrid="false"
     units="px" />
  <metadata
     id="metadata7">
    <rdf:RDF>
      <cc:Work
         rdf:about="">
        <dc:format>image/svg+xml</dc:format>
        <dc:type
           rdf:resource="http://purl.org/dc/dcmitype/StillImage" />
        <dc:title></dc:title>
      </cc:Work>
    </rdf:RDF>
  </metadata>
  <g
     inkscape:label="Capa 1"
     inkscape:groupmode="layer"
     id="layer1"
     transform="translate(0,-540.36216)">
    <g
       transform="matrix(0.76213377,0,0,-0.76153337,-65.527406,1032.6012)"
       inkscape:label="LOGO_YOSOY"
       id="g3379">
      <g
         id="g3381">
        <g
           clip-path="url(#clipPath3385)"
           id="g3383">
          <g
             transform="translate(614.918,314.7725)"
             id="g3389">
            <path
               inkscape:connector-curvature="0"
               id="path3391"
               style="fill:#231f20;fill-opacity:1;fill-rule:nonzero;stroke:none"
               d="m 0,0 c -75.218,19.593 -106.811,62.38 -106.811,62.38 0,0 -58.352,60.84 -85.042,144.317 l 0,-63.913 c 8.989,-25.806 52.866,-80.542 52.866,-80.542 0,0 27.936,-41.435 92.141,-73.322 C 12.735,-32.915 42.757,-19.356 57.795,1.759 28.697,-6.222 0,0 0,0" />
          </g>
          <g
             transform="translate(614.918,314.7725)"
             id="g3393">
            <path
               inkscape:connector-curvature="0"
               id="path3395"
               style="fill:none;stroke:#231f20;stroke-width:1.64077842;stroke-linecap:butt;stroke-linejoin:miter;stroke-miterlimit:10;stroke-dasharray:none;stroke-opacity:1"
               d="m 0,0 c -75.218,19.593 -106.811,62.38 -106.811,62.38 0,0 -58.352,60.84 -85.042,144.317 l 0,-63.913 c 8.989,-25.806 52.866,-80.542 52.866,-80.542 0,0 27.936,-41.435 92.141,-73.322 C 12.735,-32.915 42.757,-19.356 57.795,1.759 28.697,-6.222 0,0 0,0 Z" />
          </g>
          <g
             transform="translate(513.8477,379.2793)"
             id="g3397">
            <path
               inkscape:connector-curvature="0"
               id="path3399"
               style="fill:#231f20;fill-opacity:1;fill-rule:nonzero;stroke:none"
               d="M 0,0 C 10.032,12.963 24.187,25.585 40.15,36.172 8.257,17.626 -5.921,-1.532 -5.921,-1.532 c 0,0 -6.272,-6.543 -15.644,-18.269 0.099,-0.104 0.209,-0.209 0.31,-0.311 C -12.181,-10.428 0,0 0,0" />
          </g>
          <g
             transform="translate(513.8477,379.2793)"
             id="g3401">
            <path
               inkscape:connector-curvature="0"
               id="path3403"
               style="fill:none;stroke:#231f20;stroke-width:1.64077842;stroke-linecap:butt;stroke-linejoin:miter;stroke-miterlimit:10;stroke-dasharray:none;stroke-opacity:1"
               d="M 0,0 C 10.032,12.963 24.187,25.585 40.15,36.172 8.257,17.626 -5.921,-1.532 -5.921,-1.532 c 0,0 -6.272,-6.543 -15.644,-18.269 0.099,-0.104 0.209,-0.209 0.31,-0.311 C -12.181,-10.428 0,0 0,0 Z" />
          </g>
          <g
             transform="translate(487.207,352.9917)"
             id="g3405">
            <path
               inkscape:connector-curvature="0"
               id="path3407"
               style="fill:#231f20;fill-opacity:1;fill-rule:nonzero;stroke:none"
               d="M 0,0 C 1.371,1.736 2.988,3.595 4.748,5.494 4.665,5.579 4.582,5.662 4.489,5.748 3.059,3.952 1.554,2.024 0,0" />
          </g>
          <g
             transform="translate(487.207,352.9917)"
             id="g3409">
            <path
               inkscape:connector-curvature="0"
               id="path3411"
               style="fill:none;stroke:#231f20;stroke-width:1.64077842;stroke-linecap:butt;stroke-linejoin:miter;stroke-miterlimit:10;stroke-dasharray:none;stroke-opacity:1"
               d="M 0,0 C 1.371,1.736 2.988,3.595 4.748,5.494 4.665,5.579 4.582,5.662 4.489,5.748 3.059,3.952 1.554,2.024 0,0 Z" />
          </g>
          <g
             transform="translate(475.9971,378.0586)"
             id="g3413">
            <path
               inkscape:connector-curvature="0"
               id="path3415"
               style="fill:#231f20;fill-opacity:1;fill-rule:nonzero;stroke:none"
               d="m 0,0 c -32.603,38.324 -49.7,75.7 -52.932,83.137 l 0,-8.173 C -37.404,42.095 -19.157,20.385 -0.678,-0.981 -0.335,-0.549 -0.146,-0.177 0,0" />
          </g>
          <g
             transform="translate(475.9971,378.0586)"
             id="g3417">
            <path
               inkscape:connector-curvature="0"
               id="path3419"
               style="fill:none;stroke:#231f20;stroke-width:1.64077842;stroke-linecap:butt;stroke-linejoin:miter;stroke-miterlimit:10;stroke-dasharray:none;stroke-opacity:1"
               d="m 0,0 c -32.603,38.324 -49.7,75.7 -52.932,83.137 l 0,-8.173 C -37.404,42.095 -19.157,20.385 -0.678,-0.981 -0.335,-0.549 -0.146,-0.177 0,0 Z" />
          </g>
          <g
             transform="translate(486.1523,351.6172)"
             id="g3421">
            <path
               inkscape:connector-curvature="0"
               id="path3423"
               style="fill:#231f20;fill-opacity:1;fill-rule:nonzero;stroke:none"
               d="M 0,0 C -0.004,-0.004 -0.008,-0.01 -0.008,-0.012 0.35,0.454 0.708,0.915 1.055,1.375 0.691,0.908 0.332,0.448 0,0" />
          </g>
          <g
             transform="translate(486.1523,351.6172)"
             id="g3425">
            <path
               inkscape:connector-curvature="0"
               id="path3427"
               style="fill:none;stroke:#231f20;stroke-width:1.64077842;stroke-linecap:butt;stroke-linejoin:miter;stroke-miterlimit:10;stroke-dasharray:none;stroke-opacity:1"
               d="M 0,0 C -0.004,-0.004 -0.008,-0.01 -0.008,-0.012 0.35,0.454 0.708,0.915 1.055,1.375 0.691,0.908 0.332,0.448 0,0 Z" />
          </g>
          <g
             transform="translate(629.5576,474.397)"
             id="g3429">
            <path
               inkscape:connector-curvature="0"
               id="path3431"
               style="fill:#231f20;fill-opacity:1;fill-rule:nonzero;stroke:none"
               d="m 0,0 c -108.304,-29.034 -153.805,-96.507 -153.805,-96.507 l -0.884,-1.114 c -6.186,-7.807 -43.214,-55.112 -51.803,-78.91 l 0,-63.876 c 16.168,50.258 43.756,92.237 63.079,117.615 0,0.002 0.004,0.008 0.008,0.012 0.332,0.448 0.691,0.908 1.054,1.375 1.554,2.024 3.059,3.951 4.49,5.748 l 0.586,0.739 c 9.372,11.726 15.644,18.268 15.644,18.268 0,0 14.178,19.159 46.071,37.705 57.325,37.989 138.033,49.599 135.54,-44.319 -2.339,-88.185 -63.481,-85.016 -94.043,-77.87 30.934,-9.535 74.239,-17.515 99.534,-3.693 20.95,12.343 38.812,37.409 38.812,87.049 l 0,1.271 C 104.283,23.417 0,0 0,0" />
          </g>
          <g
             transform="translate(629.5576,474.397)"
             id="g3433">
            <path
               inkscape:connector-curvature="0"
               id="path3435"
               style="fill:none;stroke:#231f20;stroke-width:1.64077842;stroke-linecap:butt;stroke-linejoin:miter;stroke-miterlimit:10;stroke-dasharray:none;stroke-opacity:1"
               d="m 0,0 c -108.304,-29.034 -153.805,-96.507 -153.805,-96.507 l -0.884,-1.114 c -6.186,-7.807 -43.214,-55.112 -51.803,-78.91 l 0,-63.876 c 16.168,50.258 43.756,92.237 63.079,117.615 0,0.002 0.004,0.008 0.008,0.012 0.332,0.448 0.691,0.908 1.054,1.375 1.554,2.024 3.059,3.951 4.49,5.748 l 0.586,0.739 c 9.372,11.726 15.644,18.268 15.644,18.268 0,0 14.178,19.159 46.071,37.705 57.325,37.989 138.033,49.599 135.54,-44.319 -2.339,-88.185 -63.481,-85.016 -94.043,-77.87 30.934,-9.535 74.239,-17.515 99.534,-3.693 20.95,12.343 38.812,37.409 38.812,87.049 l 0,1.271 C 104.283,23.417 0,0 0,0 Z" />
          </g>
          <g
             transform="translate(593.4082,462.5649)"
             id="g3437">
            <path
               inkscape:connector-curvature="0"
               id="path3439"
               style="fill:#231f20;fill-opacity:1;fill-rule:evenodd;stroke:none"
               d="M 0,0 C 0,0 111.451,53.209 138.179,-50.235 138.179,-50.235 119.461,39.543 0,0" />
          </g>
          <g
             transform="translate(593.4082,462.5649)"
             id="g3441">
            <path
               inkscape:connector-curvature="0"
               id="path3443"
               style="fill:none;stroke:#231f20;stroke-width:1.64077842;stroke-linecap:butt;stroke-linejoin:miter;stroke-miterlimit:10;stroke-dasharray:none;stroke-opacity:1"
               d="M 0,0 C 0,0 111.451,53.209 138.179,-50.235 138.179,-50.235 119.461,39.543 0,0 Z" />
          </g>
          <g
             transform="translate(491.8721,396.7734)"
             id="g3445">
            <path
               inkscape:connector-curvature="0"
               id="path3447"
               style="fill:#231f20;fill-opacity:1;fill-rule:nonzero;stroke:none"
               d="m 0,0 c -6.761,-7.088 -11.02,-11.746 -16.371,-19.181 -2.746,-3.639 -5.775,-7.207 -8.849,-11.45 -18.784,-24.366 -37.84,-52.602 -43.587,-68.323 l 0,-7.149 c 3.963,8.925 24.526,53.201 59.824,94.778 C -6.287,-7.853 -0.711,-1.246 0,0" />
          </g>
          <g
             transform="translate(491.8721,396.7734)"
             id="g3449">
            <path
               inkscape:connector-curvature="0"
               id="path3451"
               style="fill:none;stroke:#231f20;stroke-width:1.64077842;stroke-linecap:butt;stroke-linejoin:miter;stroke-miterlimit:10;stroke-dasharray:none;stroke-opacity:1"
               d="m 0,0 c -6.761,-7.088 -11.02,-11.746 -16.371,-19.181 -2.746,-3.639 -5.775,-7.207 -8.849,-11.45 -18.784,-24.366 -37.84,-52.602 -43.587,-68.323 l 0,-7.149 c 3.963,8.925 24.526,53.201 59.824,94.778 C -6.287,-7.853 -0.711,-1.246 0,0 Z" />
          </g>
          <g
             transform="translate(672.3926,316.4507)"
             id="g3453">
            <path
               inkscape:connector-curvature="0"
               id="path3455"
               style="fill:#231f20;fill-opacity:1;fill-rule:nonzero;stroke:none"
               d="m 0,0 c 0,0 -21.994,-38.101 -90.138,-17.145 0,0 69.002,-14.26 90.138,17.145" />
          </g>
          <g
             transform="translate(672.3926,316.4507)"
             id="g3457">
            <path
               inkscape:connector-curvature="0"
               id="path3459"
               style="fill:none;stroke:#231f20;stroke-width:1.64077842;stroke-linecap:butt;stroke-linejoin:miter;stroke-miterlimit:10;stroke-dasharray:none;stroke-opacity:1"
               d="m 0,0 c 0,0 -21.994,-38.101 -90.138,-17.145 0,0 69.002,-14.26 90.138,17.145 z" />
          </g>
          <g
             transform="translate(231.2046,314.7725)"
             id="g3461">
            <path
               inkscape:connector-curvature="0"
               id="path3463"
               style="fill:#231f20;fill-opacity:1;fill-rule:nonzero;stroke:none"
               d="m 0,0 c 75.218,19.593 106.81,62.38 106.81,62.38 0,0 58.356,60.84 85.051,144.317 l 0,-63.913 c -8.995,-25.806 -52.87,-80.542 -52.87,-80.542 0,0 -27.944,-41.435 -92.148,-73.322 C -12.738,-32.915 -42.762,-19.356 -57.803,1.759 -28.705,-6.222 0,0 0,0" />
          </g>
          <g
             transform="translate(231.2046,314.7725)"
             id="g3465">
            <path
               inkscape:connector-curvature="0"
               id="path3467"
               style="fill:none;stroke:#231f20;stroke-width:1.64077842;stroke-linecap:butt;stroke-linejoin:miter;stroke-miterlimit:10;stroke-dasharray:none;stroke-opacity:1"
               d="m 0,0 c 75.218,19.593 106.81,62.38 106.81,62.38 0,0 58.356,60.84 85.051,144.317 l 0,-63.913 c -8.995,-25.806 -52.87,-80.542 -52.87,-80.542 0,0 -27.944,-41.435 -92.148,-73.322 C -12.738,-32.915 -42.762,-19.356 -57.803,1.759 -28.705,-6.222 0,0 0,0 Z" />
          </g>
          <g
             transform="translate(332.2739,379.2793)"
             id="g3469">
            <path
               inkscape:connector-curvature="0"
               id="path3471"
               style="fill:#231f20;fill-opacity:1;fill-rule:nonzero;stroke:none"
               d="M 0,0 C -10.027,12.963 -24.183,25.585 -40.153,36.172 -8.258,17.626 5.919,-1.532 5.919,-1.532 c 0,0 6.274,-6.543 15.645,-18.269 -0.1,-0.104 -0.207,-0.209 -0.305,-0.311 C 12.186,-10.428 0,0 0,0" />
          </g>
          <g
             transform="translate(332.2739,379.2793)"
             id="g3473">
            <path
               inkscape:connector-curvature="0"
               id="path3475"
               style="fill:none;stroke:#231f20;stroke-width:1.64077842;stroke-linecap:butt;stroke-linejoin:miter;stroke-miterlimit:10;stroke-dasharray:none;stroke-opacity:1"
               d="M 0,0 C -10.027,12.963 -24.183,25.585 -40.153,36.172 -8.258,17.626 5.919,-1.532 5.919,-1.532 c 0,0 6.274,-6.543 15.645,-18.269 -0.1,-0.104 -0.207,-0.209 -0.305,-0.311 C 12.186,-10.428 0,0 0,0 Z" />
          </g>
          <g
             transform="translate(358.9121,352.9917)"
             id="g3477">
            <path
               inkscape:connector-curvature="0"
               id="path3479"
               style="fill:#231f20;fill-opacity:1;fill-rule:nonzero;stroke:none"
               d="m 0,0 c -1.369,1.736 -2.99,3.595 -4.745,5.494 0.09,0.085 0.17,0.168 0.265,0.254 C -3.055,3.952 -1.551,2.024 0,0" />
          </g>
          <g
             transform="translate(358.9121,352.9917)"
             id="g3481">
            <path
               inkscape:connector-curvature="0"
               id="path3483"
               style="fill:none;stroke:#231f20;stroke-width:1.64077842;stroke-linecap:butt;stroke-linejoin:miter;stroke-miterlimit:10;stroke-dasharray:none;stroke-opacity:1"
               d="m 0,0 c -1.369,1.736 -2.99,3.595 -4.745,5.494 0.09,0.085 0.17,0.168 0.265,0.254 C -3.055,3.952 -1.551,2.024 0,0 Z" />
          </g>
          <g
             transform="translate(370.125,378.0586)"
             id="g3485">
            <path
               inkscape:connector-curvature="0"
               id="path3487"
               style="fill:#231f20;fill-opacity:1;fill-rule:nonzero;stroke:none"
               d="m 0,0 c 32.606,38.324 49.705,75.7 52.94,83.137 l 0,-8.173 C 37.405,42.095 19.161,20.385 0.682,-0.981 0.343,-0.549 0.15,-0.177 0,0" />
          </g>
          <g
             transform="translate(370.125,378.0586)"
             id="g3489">
            <path
               inkscape:connector-curvature="0"
               id="path3491"
               style="fill:none;stroke:#231f20;stroke-width:1.64077842;stroke-linecap:butt;stroke-linejoin:miter;stroke-miterlimit:10;stroke-dasharray:none;stroke-opacity:1"
               d="m 0,0 c 32.606,38.324 49.705,75.7 52.94,83.137 l 0,-8.173 C 37.405,42.095 19.161,20.385 0.682,-0.981 0.343,-0.549 0.15,-0.177 0,0 Z" />
          </g>
          <g
             transform="translate(359.9702,351.6172)"
             id="g3493">
            <path
               inkscape:connector-curvature="0"
               id="path3495"
               style="fill:#231f20;fill-opacity:1;fill-rule:nonzero;stroke:none"
               d="M 0,0 C 0.007,-0.004 0.007,-0.01 0.01,-0.012 -0.351,0.454 -0.704,0.915 -1.058,1.375 -0.688,0.908 -0.329,0.448 0,0" />
          </g>
          <g
             transform="translate(359.9702,351.6172)"
             id="g3497">
            <path
               inkscape:connector-curvature="0"
               id="path3499"
               style="fill:none;stroke:#231f20;stroke-width:1.64077842;stroke-linecap:butt;stroke-linejoin:miter;stroke-miterlimit:10;stroke-dasharray:none;stroke-opacity:1"
               d="M 0,0 C 0.007,-0.004 0.007,-0.01 0.01,-0.012 -0.351,0.454 -0.704,0.915 -1.058,1.375 -0.688,0.908 -0.329,0.448 0,0 Z" />
          </g>
          <g
             transform="translate(216.5591,474.397)"
             id="g3501">
            <path
               inkscape:connector-curvature="0"
               id="path3503"
               style="fill:#231f20;fill-opacity:1;fill-rule:nonzero;stroke:none"
               d="m 0,0 c 108.309,-29.034 153.813,-96.507 153.813,-96.507 l 0.882,-1.114 c 6.189,-7.807 43.222,-55.112 51.811,-78.91 l 0,-63.876 c -16.178,50.258 -43.764,92.237 -63.085,117.615 -0.003,0.002 -0.003,0.008 -0.01,0.012 -0.329,0.448 -0.688,0.908 -1.058,1.375 -1.551,2.024 -3.055,3.951 -4.48,5.748 l -0.594,0.739 c -9.371,11.726 -15.645,18.268 -15.645,18.268 0,0 -14.177,19.159 -46.072,37.705 -57.321,37.989 -138.036,49.599 -135.546,-44.319 2.344,-88.185 63.49,-85.016 94.048,-77.87 -30.938,-9.535 -74.242,-17.515 -99.541,-3.693 -20.941,12.343 -38.811,37.409 -38.811,87.049 l 0,1.271 C -104.288,23.417 0,0 0,0" />
          </g>
          <g
             transform="translate(216.5591,474.397)"
             id="g3505">
            <path
               inkscape:connector-curvature="0"
               id="path3507"
               style="fill:none;stroke:#231f20;stroke-width:1.64077842;stroke-linecap:butt;stroke-linejoin:miter;stroke-miterlimit:10;stroke-dasharray:none;stroke-opacity:1"
               d="m 0,0 c 108.309,-29.034 153.813,-96.507 153.813,-96.507 l 0.882,-1.114 c 6.189,-7.807 43.222,-55.112 51.811,-78.91 l 0,-63.876 c -16.178,50.258 -43.764,92.237 -63.085,117.615 -0.003,0.002 -0.003,0.008 -0.01,0.012 -0.329,0.448 -0.688,0.908 -1.058,1.375 -1.551,2.024 -3.055,3.951 -4.48,5.748 l -0.594,0.739 c -9.371,11.726 -15.645,18.268 -15.645,18.268 0,0 -14.177,19.159 -46.072,37.705 -57.321,37.989 -138.036,49.599 -135.546,-44.319 2.344,-88.185 63.49,-85.016 94.048,-77.87 -30.938,-9.535 -74.242,-17.515 -99.541,-3.693 -20.941,12.343 -38.811,37.409 -38.811,87.049 l 0,1.271 C -104.288,23.417 0,0 0,0 Z" />
          </g>
          <g
             transform="translate(252.7109,462.5649)"
             id="g3509">
            <path
               inkscape:connector-curvature="0"
               id="path3511"
               style="fill:#231f20;fill-opacity:1;fill-rule:evenodd;stroke:none"
               d="m 0,0 c 0,0 -111.457,53.209 -138.179,-50.235 0,0 18.708,89.778 138.179,50.235" />
          </g>
          <g
             transform="translate(252.7109,462.5649)"
             id="g3513">
            <path
               inkscape:connector-curvature="0"
               id="path3515"
               style="fill:none;stroke:#231f20;stroke-width:1.64077842;stroke-linecap:butt;stroke-linejoin:miter;stroke-miterlimit:10;stroke-dasharray:none;stroke-opacity:1"
               d="m 0,0 c 0,0 -111.457,53.209 -138.179,-50.235 0,0 18.708,89.778 138.179,50.235 z" />
          </g>
          <g
             transform="translate(354.2573,396.7734)"
             id="g3517">
            <path
               inkscape:connector-curvature="0"
               id="path3519"
               style="fill:#231f20;fill-opacity:1;fill-rule:nonzero;stroke:none"
               d="m 0,0 c 6.754,-7.088 11.02,-11.746 16.369,-19.181 2.747,-3.639 5.771,-7.207 8.847,-11.45 C 44,-54.997 63.057,-83.233 68.808,-98.954 l 0,-7.149 C 64.845,-97.178 44.277,-52.902 8.983,-11.325 6.283,-7.853 0.706,-1.246 0,0" />
          </g>
          <g
             transform="translate(354.2573,396.7734)"
             id="g3521">
            <path
               inkscape:connector-curvature="0"
               id="path3523"
               style="fill:none;stroke:#231f20;stroke-width:1.64077842;stroke-linecap:butt;stroke-linejoin:miter;stroke-miterlimit:10;stroke-dasharray:none;stroke-opacity:1"
               d="m 0,0 c 6.754,-7.088 11.02,-11.746 16.369,-19.181 2.747,-3.639 5.771,-7.207 8.847,-11.45 C 44,-54.997 63.057,-83.233 68.808,-98.954 l 0,-7.149 C 64.845,-97.178 44.277,-52.902 8.983,-11.325 6.283,-7.853 0.706,-1.246 0,0 Z" />
          </g>
          <g
             transform="translate(173.7227,316.4507)"
             id="g3525">
            <path
               inkscape:connector-curvature="0"
               id="path3527"
               style="fill:#231f20;fill-opacity:1;fill-rule:nonzero;stroke:none"
               d="M 0,0 C 0,0 21.994,-38.101 90.145,-17.145 90.145,-17.145 21.139,-31.405 0,0" />
          </g>
          <g
             transform="translate(173.7227,316.4507)"
             id="g3529">
            <path
               inkscape:connector-curvature="0"
               id="path3531"
               style="fill:none;stroke:#231f20;stroke-width:1.64077842;stroke-linecap:butt;stroke-linejoin:miter;stroke-miterlimit:10;stroke-dasharray:none;stroke-opacity:1"
               d="M 0,0 C 0,0 21.994,-38.101 90.145,-17.145 90.145,-17.145 21.139,-31.405 0,0 Z" />
          </g>
          <g
             transform="translate(196.7959,142.0078)"
             id="g3533">
            <path
               inkscape:connector-curvature="0"
               id="path3535"
               style="fill:#231f20;fill-opacity:1;fill-rule:nonzero;stroke:none"
               d="m 0,0 -48.019,79.608 32.318,0 30.486,-51.489 30.315,51.489 31.954,0 -48.386,-80.341 0,-50.024 L 0,-50.757 0,0 Z" />
          </g>
          <g
             transform="translate(310.5449,112.251)"
             id="g3537">
            <path
               inkscape:connector-curvature="0"
               id="path3539"
               style="fill:#231f20;fill-opacity:1;fill-rule:nonzero;stroke:none"
               d="M 0,0 C 25.747,0 35.43,21.904 35.43,43.633 35.43,66.459 25.747,88.37 0,88.37 -25.743,88.37 -35.417,66.459 -35.417,43.633 -35.417,21.904 -25.743,0 0,0 m 0,112.472 c 40.358,0 64.094,-30.126 64.094,-68.839 0,-37.612 -23.736,-67.739 -64.094,-67.739 -40.345,0 -64.086,30.127 -64.086,67.739 0,38.713 23.741,68.839 64.086,68.839" />
          </g>
          <g
             transform="translate(395.667,134.5234)"
             id="g3541">
            <path
               inkscape:connector-curvature="0"
               id="path3543"
               style="fill:#231f20;fill-opacity:1;fill-rule:nonzero;stroke:none"
               d="m 0,0 c 0,-17.345 13.515,-24.1 28.854,-24.1 10.037,0 25.38,2.923 25.38,16.249 0,14.059 -19.541,16.431 -38.715,21.543 -19.351,5.109 -38.886,12.597 -38.886,37.065 0,26.664 25.197,39.442 48.75,39.442 27.207,0 52.219,-11.865 52.219,-42 l -27.747,0 c -0.918,15.711 -12.058,19.723 -25.75,19.723 -9.132,0 -19.718,-3.828 -19.718,-14.788 0,-10.043 6.206,-11.321 38.889,-19.722 9.494,-2.372 38.708,-8.4 38.708,-37.974 0,-23.923 -18.812,-41.817 -54.227,-41.817 -28.847,0 -55.871,14.247 -55.507,46.379 L 0,0 Z" />
          </g>
          <g
             transform="translate(534.8037,112.251)"
             id="g3545">
            <path
               inkscape:connector-curvature="0"
               id="path3547"
               style="fill:#231f20;fill-opacity:1;fill-rule:nonzero;stroke:none"
               d="M 0,0 C 25.738,0 35.423,21.904 35.423,43.633 35.423,66.459 25.738,88.37 0,88.37 -25.75,88.37 -35.42,66.459 -35.42,43.633 -35.42,21.904 -25.75,0 0,0 m 0,112.472 c 40.348,0 64.091,-30.126 64.091,-68.839 0,-37.612 -23.743,-67.739 -64.091,-67.739 -40.353,0 -64.089,30.127 -64.089,67.739 0,38.713 23.736,68.839 64.089,68.839" />
          </g>
          <g
             transform="translate(620.2998,142.0078)"
             id="g3549">
            <path
               inkscape:connector-curvature="0"
               id="path3551"
               style="fill:#231f20;fill-opacity:1;fill-rule:nonzero;stroke:none"
               d="m 0,0 -48.023,79.608 32.321,0 30.493,-51.489 30.309,51.489 31.956,0 -48.382,-80.341 0,-50.024 L 0,-50.757 0,0 Z" />
          </g>
        </g>
      </g>
    </g>
  </g>
</svg>
